<?xml version="1.0" encoding="UTF-8" standalone="no"?>
<!DOCTYPE svg PUBLIC "-//W3C//DTD SVG 1.1//EN" 
 "http://www.w3.org/Graphics/SVG/1.1/DTD/svg11.dtd">
<svg xmlns="http://www.w3.org/2000/svg" version="1.1" width="100" height="100">
    <clipPath id="myClip" fill="red">
        <path fill="red" d="M -12 108 C 3.3137 86.1357 -3 77 19 66 C 40 54 34 41 61 44 C 84 46 82 38 93 36 C 104 34 106.0788 38.0905 129 25 L 129 108 C 108 108 124 108 106 108 C 78 108 96 108 72 108 C 42 108 56 108 39 108 C 18 108 14 108 -2 108 Z"></path>
    </clipPath>
    <rect x="0" y="0" width="100" height="100" fill="#111827" rx="8" />  
    <rect id="rect" x="0" y="0" width="100" height="100" fill="white" fill-opacity="0.1" rx="8" />  
    <use clip-path="url(#myClip)" href="#rect" fill="white" />
    <rect x="10" y="15" width="80" height="18" fill="rgb(239 68 68)"  rx="4" />
    <rect x="10" y="40" width="70" height="18" fill="rgb(34 197 94)"  rx="4" />
    <rect x="10" y="65" width="60" height="18" fill="rgb(59 130 246)"  rx="4" />
    <circle cx="20" cy="24" r="5" fill="#ffffff66" />
    <circle cx="20" cy="49" r="5" fill="#ffffff66" />
    <circle cx="20" cy="74" r="5" fill="#ffffff66" />
</svg>